<mxfile host="app.diagrams.net" modified="2024-06-09T08:24:26.158Z" agent="Mozilla/5.0 (Windows NT 10.0; Win64; x64) AppleWebKit/537.36 (KHTML, like Gecko) Chrome/124.0.0.0 Safari/537.36 OPR/110.0.0.0" etag="yG2KGvtymljaOaGhwwyP" version="24.5.2" type="device">
  <diagram id="C5RBs43oDa-KdzZeNtuy" name="Page-1">
    <mxGraphModel dx="2807" dy="2317" grid="1" gridSize="10" guides="1" tooltips="1" connect="1" arrows="1" fold="1" page="1" pageScale="1" pageWidth="827" pageHeight="1169" math="0" shadow="0">
      <root>
        <mxCell id="WIyWlLk6GJQsqaUBKTNV-0" />
        <mxCell id="WIyWlLk6GJQsqaUBKTNV-1" parent="WIyWlLk6GJQsqaUBKTNV-0" />
        <mxCell id="PF3ve-ReOAJWcFY7nudU-39" value="" style="verticalLabelPosition=bottom;verticalAlign=top;html=1;shape=mxgraph.basic.rect;fillColor2=none;strokeWidth=1;size=20;indent=5;" vertex="1" parent="WIyWlLk6GJQsqaUBKTNV-1">
          <mxGeometry x="195" y="740" width="650" height="350" as="geometry" />
        </mxCell>
        <mxCell id="v_5QQle6XalpUN1hy-oC-42" value="" style="rounded=0;whiteSpace=wrap;html=1;" parent="WIyWlLk6GJQsqaUBKTNV-1" vertex="1">
          <mxGeometry x="950" y="620" width="640" height="430" as="geometry" />
        </mxCell>
        <mxCell id="v_5QQle6XalpUN1hy-oC-1" value="" style="rounded=0;whiteSpace=wrap;html=1;" parent="WIyWlLk6GJQsqaUBKTNV-1" vertex="1">
          <mxGeometry x="-40" y="-10" width="940" height="670" as="geometry" />
        </mxCell>
        <mxCell id="XYb0ZHMh9JhdsdhIbKo0-0" value="Movie" style="swimlane;fontStyle=1;align=center;verticalAlign=top;childLayout=stackLayout;horizontal=1;startSize=26;horizontalStack=0;resizeParent=1;resizeParentMax=0;resizeLast=0;collapsible=1;marginBottom=0;whiteSpace=wrap;html=1;" parent="WIyWlLk6GJQsqaUBKTNV-1" vertex="1">
          <mxGeometry x="-15" y="186" width="300" height="328" as="geometry" />
        </mxCell>
        <mxCell id="XYb0ZHMh9JhdsdhIbKo0-1" value="+ id: Int" style="text;strokeColor=none;fillColor=none;align=left;verticalAlign=top;spacingLeft=4;spacingRight=4;overflow=hidden;rotatable=0;points=[[0,0.5],[1,0.5]];portConstraint=eastwest;whiteSpace=wrap;html=1;" parent="XYb0ZHMh9JhdsdhIbKo0-0" vertex="1">
          <mxGeometry y="26" width="300" height="22" as="geometry" />
        </mxCell>
        <mxCell id="XYb0ZHMh9JhdsdhIbKo0-10" value="+ title: Str" style="text;strokeColor=none;fillColor=none;align=left;verticalAlign=top;spacingLeft=4;spacingRight=4;overflow=hidden;rotatable=0;points=[[0,0.5],[1,0.5]];portConstraint=eastwest;whiteSpace=wrap;html=1;" parent="XYb0ZHMh9JhdsdhIbKo0-0" vertex="1">
          <mxGeometry y="48" width="300" height="22" as="geometry" />
        </mxCell>
        <mxCell id="XYb0ZHMh9JhdsdhIbKo0-9" value="+ genre: Str" style="text;strokeColor=none;fillColor=none;align=left;verticalAlign=top;spacingLeft=4;spacingRight=4;overflow=hidden;rotatable=0;points=[[0,0.5],[1,0.5]];portConstraint=eastwest;whiteSpace=wrap;html=1;" parent="XYb0ZHMh9JhdsdhIbKo0-0" vertex="1">
          <mxGeometry y="70" width="300" height="22" as="geometry" />
        </mxCell>
        <mxCell id="XYb0ZHMh9JhdsdhIbKo0-8" value="+ description: Str" style="text;strokeColor=none;fillColor=none;align=left;verticalAlign=top;spacingLeft=4;spacingRight=4;overflow=hidden;rotatable=0;points=[[0,0.5],[1,0.5]];portConstraint=eastwest;whiteSpace=wrap;html=1;" parent="XYb0ZHMh9JhdsdhIbKo0-0" vertex="1">
          <mxGeometry y="92" width="300" height="22" as="geometry" />
        </mxCell>
        <mxCell id="XYb0ZHMh9JhdsdhIbKo0-11" value="+ year_of_release: I&lt;span style=&quot;background-color: initial;&quot;&gt;nt&lt;/span&gt;" style="text;strokeColor=none;fillColor=none;align=left;verticalAlign=top;spacingLeft=4;spacingRight=4;overflow=hidden;rotatable=0;points=[[0,0.5],[1,0.5]];portConstraint=eastwest;whiteSpace=wrap;html=1;" parent="XYb0ZHMh9JhdsdhIbKo0-0" vertex="1">
          <mxGeometry y="114" width="300" height="22" as="geometry" />
        </mxCell>
        <mxCell id="XYb0ZHMh9JhdsdhIbKo0-7" value="+ rating: Real" style="text;strokeColor=none;fillColor=none;align=left;verticalAlign=top;spacingLeft=4;spacingRight=4;overflow=hidden;rotatable=0;points=[[0,0.5],[1,0.5]];portConstraint=eastwest;whiteSpace=wrap;html=1;" parent="XYb0ZHMh9JhdsdhIbKo0-0" vertex="1">
          <mxGeometry y="136" width="300" height="22" as="geometry" />
        </mxCell>
        <mxCell id="XYb0ZHMh9JhdsdhIbKo0-6" value="+ vote_count: Int" style="text;strokeColor=none;fillColor=none;align=left;verticalAlign=top;spacingLeft=4;spacingRight=4;overflow=hidden;rotatable=0;points=[[0,0.5],[1,0.5]];portConstraint=eastwest;whiteSpace=wrap;html=1;" parent="XYb0ZHMh9JhdsdhIbKo0-0" vertex="1">
          <mxGeometry y="158" width="300" height="22" as="geometry" />
        </mxCell>
        <mxCell id="XYb0ZHMh9JhdsdhIbKo0-13" value="+ cast: Map[Str, Celebrity]" style="text;strokeColor=none;fillColor=none;align=left;verticalAlign=top;spacingLeft=4;spacingRight=4;overflow=hidden;rotatable=0;points=[[0,0.5],[1,0.5]];portConstraint=eastwest;whiteSpace=wrap;html=1;" parent="XYb0ZHMh9JhdsdhIbKo0-0" vertex="1">
          <mxGeometry y="180" width="300" height="22" as="geometry" />
        </mxCell>
        <mxCell id="XYb0ZHMh9JhdsdhIbKo0-12" value="+ reviews: List[Review]" style="text;strokeColor=none;fillColor=none;align=left;verticalAlign=top;spacingLeft=4;spacingRight=4;overflow=hidden;rotatable=0;points=[[0,0.5],[1,0.5]];portConstraint=eastwest;whiteSpace=wrap;html=1;" parent="XYb0ZHMh9JhdsdhIbKo0-0" vertex="1">
          <mxGeometry y="202" width="300" height="22" as="geometry" />
        </mxCell>
        <mxCell id="XYb0ZHMh9JhdsdhIbKo0-47" value="+ pg_rating: Enum" style="text;strokeColor=none;fillColor=none;align=left;verticalAlign=top;spacingLeft=4;spacingRight=4;overflow=hidden;rotatable=0;points=[[0,0.5],[1,0.5]];portConstraint=eastwest;whiteSpace=wrap;html=1;" parent="XYb0ZHMh9JhdsdhIbKo0-0" vertex="1">
          <mxGeometry y="224" width="300" height="22" as="geometry" />
        </mxCell>
        <mxCell id="XYb0ZHMh9JhdsdhIbKo0-55" value="+ duration: Seconds" style="text;strokeColor=none;fillColor=none;align=left;verticalAlign=top;spacingLeft=4;spacingRight=4;overflow=hidden;rotatable=0;points=[[0,0.5],[1,0.5]];portConstraint=eastwest;whiteSpace=wrap;html=1;" parent="XYb0ZHMh9JhdsdhIbKo0-0" vertex="1">
          <mxGeometry y="246" width="300" height="22" as="geometry" />
        </mxCell>
        <mxCell id="XYb0ZHMh9JhdsdhIbKo0-2" value="" style="line;strokeWidth=1;fillColor=none;align=left;verticalAlign=middle;spacingTop=-1;spacingLeft=3;spacingRight=3;rotatable=0;labelPosition=right;points=[];portConstraint=eastwest;strokeColor=inherit;" parent="XYb0ZHMh9JhdsdhIbKo0-0" vertex="1">
          <mxGeometry y="268" width="300" height="8" as="geometry" />
        </mxCell>
        <mxCell id="XYb0ZHMh9JhdsdhIbKo0-56" value="+ static getMovie(id: Int): Movie" style="text;strokeColor=none;fillColor=none;align=left;verticalAlign=top;spacingLeft=4;spacingRight=4;overflow=hidden;rotatable=0;points=[[0,0.5],[1,0.5]];portConstraint=eastwest;whiteSpace=wrap;html=1;" parent="XYb0ZHMh9JhdsdhIbKo0-0" vertex="1">
          <mxGeometry y="276" width="300" height="26" as="geometry" />
        </mxCell>
        <mxCell id="PSJUhyCq9VPYlvBbJlN5-12" value="+ static queryMovies(filters: MovieFilters): List[Movie]" style="text;strokeColor=none;fillColor=none;align=left;verticalAlign=top;spacingLeft=4;spacingRight=4;overflow=hidden;rotatable=0;points=[[0,0.5],[1,0.5]];portConstraint=eastwest;whiteSpace=wrap;html=1;" vertex="1" parent="XYb0ZHMh9JhdsdhIbKo0-0">
          <mxGeometry y="302" width="300" height="26" as="geometry" />
        </mxCell>
        <mxCell id="XYb0ZHMh9JhdsdhIbKo0-14" value="Review" style="swimlane;fontStyle=1;align=center;verticalAlign=top;childLayout=stackLayout;horizontal=1;startSize=26;horizontalStack=0;resizeParent=1;resizeParentMax=0;resizeLast=0;collapsible=1;marginBottom=0;whiteSpace=wrap;html=1;" parent="WIyWlLk6GJQsqaUBKTNV-1" vertex="1">
          <mxGeometry x="350" y="50" width="210" height="242" as="geometry" />
        </mxCell>
        <mxCell id="XYb0ZHMh9JhdsdhIbKo0-18" value="+ id: Int" style="text;strokeColor=none;fillColor=none;align=left;verticalAlign=top;spacingLeft=4;spacingRight=4;overflow=hidden;rotatable=0;points=[[0,0.5],[1,0.5]];portConstraint=eastwest;whiteSpace=wrap;html=1;" parent="XYb0ZHMh9JhdsdhIbKo0-14" vertex="1">
          <mxGeometry y="26" width="210" height="26" as="geometry" />
        </mxCell>
        <mxCell id="XYb0ZHMh9JhdsdhIbKo0-15" value="+ movie: Movie" style="text;strokeColor=none;fillColor=none;align=left;verticalAlign=top;spacingLeft=4;spacingRight=4;overflow=hidden;rotatable=0;points=[[0,0.5],[1,0.5]];portConstraint=eastwest;whiteSpace=wrap;html=1;" parent="XYb0ZHMh9JhdsdhIbKo0-14" vertex="1">
          <mxGeometry y="52" width="210" height="26" as="geometry" />
        </mxCell>
        <mxCell id="XYb0ZHMh9JhdsdhIbKo0-21" value="+ user: User" style="text;strokeColor=none;fillColor=none;align=left;verticalAlign=top;spacingLeft=4;spacingRight=4;overflow=hidden;rotatable=0;points=[[0,0.5],[1,0.5]];portConstraint=eastwest;whiteSpace=wrap;html=1;" parent="XYb0ZHMh9JhdsdhIbKo0-14" vertex="1">
          <mxGeometry y="78" width="210" height="26" as="geometry" />
        </mxCell>
        <mxCell id="XYb0ZHMh9JhdsdhIbKo0-20" value="+ rating: Int" style="text;strokeColor=none;fillColor=none;align=left;verticalAlign=top;spacingLeft=4;spacingRight=4;overflow=hidden;rotatable=0;points=[[0,0.5],[1,0.5]];portConstraint=eastwest;whiteSpace=wrap;html=1;" parent="XYb0ZHMh9JhdsdhIbKo0-14" vertex="1">
          <mxGeometry y="104" width="210" height="26" as="geometry" />
        </mxCell>
        <mxCell id="XYb0ZHMh9JhdsdhIbKo0-19" value="+ content: Str" style="text;strokeColor=none;fillColor=none;align=left;verticalAlign=top;spacingLeft=4;spacingRight=4;overflow=hidden;rotatable=0;points=[[0,0.5],[1,0.5]];portConstraint=eastwest;whiteSpace=wrap;html=1;" parent="XYb0ZHMh9JhdsdhIbKo0-14" vertex="1">
          <mxGeometry y="130" width="210" height="26" as="geometry" />
        </mxCell>
        <mxCell id="XYb0ZHMh9JhdsdhIbKo0-46" value="+ comments: List[comment]" style="text;strokeColor=none;fillColor=none;align=left;verticalAlign=top;spacingLeft=4;spacingRight=4;overflow=hidden;rotatable=0;points=[[0,0.5],[1,0.5]];portConstraint=eastwest;whiteSpace=wrap;html=1;" parent="XYb0ZHMh9JhdsdhIbKo0-14" vertex="1">
          <mxGeometry y="156" width="210" height="26" as="geometry" />
        </mxCell>
        <mxCell id="XYb0ZHMh9JhdsdhIbKo0-22" value="+ date: Date" style="text;strokeColor=none;fillColor=none;align=left;verticalAlign=top;spacingLeft=4;spacingRight=4;overflow=hidden;rotatable=0;points=[[0,0.5],[1,0.5]];portConstraint=eastwest;whiteSpace=wrap;html=1;" parent="XYb0ZHMh9JhdsdhIbKo0-14" vertex="1">
          <mxGeometry y="182" width="210" height="26" as="geometry" />
        </mxCell>
        <mxCell id="XYb0ZHMh9JhdsdhIbKo0-16" value="" style="line;strokeWidth=1;fillColor=none;align=left;verticalAlign=middle;spacingTop=-1;spacingLeft=3;spacingRight=3;rotatable=0;labelPosition=right;points=[];portConstraint=eastwest;strokeColor=inherit;" parent="XYb0ZHMh9JhdsdhIbKo0-14" vertex="1">
          <mxGeometry y="208" width="210" height="8" as="geometry" />
        </mxCell>
        <mxCell id="PSJUhyCq9VPYlvBbJlN5-3" value="+ static getReview(id: Int): Review" style="text;strokeColor=none;fillColor=none;align=left;verticalAlign=top;spacingLeft=4;spacingRight=4;overflow=hidden;rotatable=0;points=[[0,0.5],[1,0.5]];portConstraint=eastwest;whiteSpace=wrap;html=1;" vertex="1" parent="XYb0ZHMh9JhdsdhIbKo0-14">
          <mxGeometry y="216" width="210" height="26" as="geometry" />
        </mxCell>
        <mxCell id="XYb0ZHMh9JhdsdhIbKo0-23" value="User" style="swimlane;fontStyle=1;align=center;verticalAlign=top;childLayout=stackLayout;horizontal=1;startSize=26;horizontalStack=0;resizeParent=1;resizeParentMax=0;resizeLast=0;collapsible=1;marginBottom=0;whiteSpace=wrap;html=1;" parent="WIyWlLk6GJQsqaUBKTNV-1" vertex="1">
          <mxGeometry x="630" y="74" width="230" height="268" as="geometry" />
        </mxCell>
        <mxCell id="XYb0ZHMh9JhdsdhIbKo0-24" value="+ id: Int" style="text;strokeColor=none;fillColor=none;align=left;verticalAlign=top;spacingLeft=4;spacingRight=4;overflow=hidden;rotatable=0;points=[[0,0.5],[1,0.5]];portConstraint=eastwest;whiteSpace=wrap;html=1;" parent="XYb0ZHMh9JhdsdhIbKo0-23" vertex="1">
          <mxGeometry y="26" width="230" height="26" as="geometry" />
        </mxCell>
        <mxCell id="XYb0ZHMh9JhdsdhIbKo0-30" value="+ login: Str" style="text;strokeColor=none;fillColor=none;align=left;verticalAlign=top;spacingLeft=4;spacingRight=4;overflow=hidden;rotatable=0;points=[[0,0.5],[1,0.5]];portConstraint=eastwest;whiteSpace=wrap;html=1;" parent="XYb0ZHMh9JhdsdhIbKo0-23" vertex="1">
          <mxGeometry y="52" width="230" height="26" as="geometry" />
        </mxCell>
        <mxCell id="XYb0ZHMh9JhdsdhIbKo0-27" value="+ display_name: Str" style="text;strokeColor=none;fillColor=none;align=left;verticalAlign=top;spacingLeft=4;spacingRight=4;overflow=hidden;rotatable=0;points=[[0,0.5],[1,0.5]];portConstraint=eastwest;whiteSpace=wrap;html=1;" parent="XYb0ZHMh9JhdsdhIbKo0-23" vertex="1">
          <mxGeometry y="78" width="230" height="26" as="geometry" />
        </mxCell>
        <mxCell id="XYb0ZHMh9JhdsdhIbKo0-32" value="+ role: Enum" style="text;strokeColor=none;fillColor=none;align=left;verticalAlign=top;spacingLeft=4;spacingRight=4;overflow=hidden;rotatable=0;points=[[0,0.5],[1,0.5]];portConstraint=eastwest;whiteSpace=wrap;html=1;" parent="XYb0ZHMh9JhdsdhIbKo0-23" vertex="1">
          <mxGeometry y="104" width="230" height="26" as="geometry" />
        </mxCell>
        <mxCell id="XYb0ZHMh9JhdsdhIbKo0-33" value="+ favourite_movies: List[Movie]" style="text;strokeColor=none;fillColor=none;align=left;verticalAlign=top;spacingLeft=4;spacingRight=4;overflow=hidden;rotatable=0;points=[[0,0.5],[1,0.5]];portConstraint=eastwest;whiteSpace=wrap;html=1;" parent="XYb0ZHMh9JhdsdhIbKo0-23" vertex="1">
          <mxGeometry y="130" width="230" height="26" as="geometry" />
        </mxCell>
        <mxCell id="XYb0ZHMh9JhdsdhIbKo0-35" value="+ reviews: List[Review]" style="text;strokeColor=none;fillColor=none;align=left;verticalAlign=top;spacingLeft=4;spacingRight=4;overflow=hidden;rotatable=0;points=[[0,0.5],[1,0.5]];portConstraint=eastwest;whiteSpace=wrap;html=1;" parent="XYb0ZHMh9JhdsdhIbKo0-23" vertex="1">
          <mxGeometry y="156" width="230" height="26" as="geometry" />
        </mxCell>
        <mxCell id="PSJUhyCq9VPYlvBbJlN5-5" value="+ comments: List[Comment]" style="text;strokeColor=none;fillColor=none;align=left;verticalAlign=top;spacingLeft=4;spacingRight=4;overflow=hidden;rotatable=0;points=[[0,0.5],[1,0.5]];portConstraint=eastwest;whiteSpace=wrap;html=1;" vertex="1" parent="XYb0ZHMh9JhdsdhIbKo0-23">
          <mxGeometry y="182" width="230" height="26" as="geometry" />
        </mxCell>
        <mxCell id="XYb0ZHMh9JhdsdhIbKo0-25" value="" style="line;strokeWidth=1;fillColor=none;align=left;verticalAlign=middle;spacingTop=-1;spacingLeft=3;spacingRight=3;rotatable=0;labelPosition=right;points=[];portConstraint=eastwest;strokeColor=inherit;" parent="XYb0ZHMh9JhdsdhIbKo0-23" vertex="1">
          <mxGeometry y="208" width="230" height="8" as="geometry" />
        </mxCell>
        <mxCell id="XYb0ZHMh9JhdsdhIbKo0-26" value="+ delete()" style="text;strokeColor=none;fillColor=none;align=left;verticalAlign=top;spacingLeft=4;spacingRight=4;overflow=hidden;rotatable=0;points=[[0,0.5],[1,0.5]];portConstraint=eastwest;whiteSpace=wrap;html=1;" parent="XYb0ZHMh9JhdsdhIbKo0-23" vertex="1">
          <mxGeometry y="216" width="230" height="26" as="geometry" />
        </mxCell>
        <mxCell id="PSJUhyCq9VPYlvBbJlN5-1" value="+ static getUser(id: Int): User" style="text;strokeColor=none;fillColor=none;align=left;verticalAlign=top;spacingLeft=4;spacingRight=4;overflow=hidden;rotatable=0;points=[[0,0.5],[1,0.5]];portConstraint=eastwest;whiteSpace=wrap;html=1;" vertex="1" parent="XYb0ZHMh9JhdsdhIbKo0-23">
          <mxGeometry y="242" width="230" height="26" as="geometry" />
        </mxCell>
        <mxCell id="XYb0ZHMh9JhdsdhIbKo0-36" value="Comment" style="swimlane;fontStyle=1;align=center;verticalAlign=top;childLayout=stackLayout;horizontal=1;startSize=26;horizontalStack=0;resizeParent=1;resizeParentMax=0;resizeLast=0;collapsible=1;marginBottom=0;whiteSpace=wrap;html=1;" parent="WIyWlLk6GJQsqaUBKTNV-1" vertex="1">
          <mxGeometry x="375" y="400" width="160" height="164" as="geometry" />
        </mxCell>
        <mxCell id="XYb0ZHMh9JhdsdhIbKo0-37" value="+ id: Int" style="text;strokeColor=none;fillColor=none;align=left;verticalAlign=top;spacingLeft=4;spacingRight=4;overflow=hidden;rotatable=0;points=[[0,0.5],[1,0.5]];portConstraint=eastwest;whiteSpace=wrap;html=1;" parent="XYb0ZHMh9JhdsdhIbKo0-36" vertex="1">
          <mxGeometry y="26" width="160" height="26" as="geometry" />
        </mxCell>
        <mxCell id="XYb0ZHMh9JhdsdhIbKo0-45" value="+ user: User" style="text;strokeColor=none;fillColor=none;align=left;verticalAlign=top;spacingLeft=4;spacingRight=4;overflow=hidden;rotatable=0;points=[[0,0.5],[1,0.5]];portConstraint=eastwest;whiteSpace=wrap;html=1;" parent="XYb0ZHMh9JhdsdhIbKo0-36" vertex="1">
          <mxGeometry y="52" width="160" height="26" as="geometry" />
        </mxCell>
        <mxCell id="XYb0ZHMh9JhdsdhIbKo0-44" value="+ content: Str" style="text;strokeColor=none;fillColor=none;align=left;verticalAlign=top;spacingLeft=4;spacingRight=4;overflow=hidden;rotatable=0;points=[[0,0.5],[1,0.5]];portConstraint=eastwest;whiteSpace=wrap;html=1;" parent="XYb0ZHMh9JhdsdhIbKo0-36" vertex="1">
          <mxGeometry y="78" width="160" height="26" as="geometry" />
        </mxCell>
        <mxCell id="XYb0ZHMh9JhdsdhIbKo0-78" value="+ review: Review" style="text;strokeColor=none;fillColor=none;align=left;verticalAlign=top;spacingLeft=4;spacingRight=4;overflow=hidden;rotatable=0;points=[[0,0.5],[1,0.5]];portConstraint=eastwest;whiteSpace=wrap;html=1;" parent="XYb0ZHMh9JhdsdhIbKo0-36" vertex="1">
          <mxGeometry y="104" width="160" height="26" as="geometry" />
        </mxCell>
        <mxCell id="XYb0ZHMh9JhdsdhIbKo0-38" value="" style="line;strokeWidth=1;fillColor=none;align=left;verticalAlign=middle;spacingTop=-1;spacingLeft=3;spacingRight=3;rotatable=0;labelPosition=right;points=[];portConstraint=eastwest;strokeColor=inherit;" parent="XYb0ZHMh9JhdsdhIbKo0-36" vertex="1">
          <mxGeometry y="130" width="160" height="8" as="geometry" />
        </mxCell>
        <mxCell id="XYb0ZHMh9JhdsdhIbKo0-39" value="+ delete()" style="text;strokeColor=none;fillColor=none;align=left;verticalAlign=top;spacingLeft=4;spacingRight=4;overflow=hidden;rotatable=0;points=[[0,0.5],[1,0.5]];portConstraint=eastwest;whiteSpace=wrap;html=1;" parent="XYb0ZHMh9JhdsdhIbKo0-36" vertex="1">
          <mxGeometry y="138" width="160" height="26" as="geometry" />
        </mxCell>
        <mxCell id="XYb0ZHMh9JhdsdhIbKo0-50" value="Celebrity" style="swimlane;fontStyle=1;align=center;verticalAlign=top;childLayout=stackLayout;horizontal=1;startSize=26;horizontalStack=0;resizeParent=1;resizeParentMax=0;resizeLast=0;collapsible=1;marginBottom=0;whiteSpace=wrap;html=1;" parent="WIyWlLk6GJQsqaUBKTNV-1" vertex="1">
          <mxGeometry x="10" y="40" width="250" height="112" as="geometry" />
        </mxCell>
        <mxCell id="XYb0ZHMh9JhdsdhIbKo0-51" value="+ name: Str" style="text;strokeColor=none;fillColor=none;align=left;verticalAlign=top;spacingLeft=4;spacingRight=4;overflow=hidden;rotatable=0;points=[[0,0.5],[1,0.5]];portConstraint=eastwest;whiteSpace=wrap;html=1;" parent="XYb0ZHMh9JhdsdhIbKo0-50" vertex="1">
          <mxGeometry y="26" width="250" height="26" as="geometry" />
        </mxCell>
        <mxCell id="XYb0ZHMh9JhdsdhIbKo0-54" value="+ movies: Map[str, Movie]" style="text;strokeColor=none;fillColor=none;align=left;verticalAlign=top;spacingLeft=4;spacingRight=4;overflow=hidden;rotatable=0;points=[[0,0.5],[1,0.5]];portConstraint=eastwest;whiteSpace=wrap;html=1;" parent="XYb0ZHMh9JhdsdhIbKo0-50" vertex="1">
          <mxGeometry y="52" width="250" height="26" as="geometry" />
        </mxCell>
        <mxCell id="XYb0ZHMh9JhdsdhIbKo0-52" value="" style="line;strokeWidth=1;fillColor=none;align=left;verticalAlign=middle;spacingTop=-1;spacingLeft=3;spacingRight=3;rotatable=0;labelPosition=right;points=[];portConstraint=eastwest;strokeColor=inherit;" parent="XYb0ZHMh9JhdsdhIbKo0-50" vertex="1">
          <mxGeometry y="78" width="250" height="8" as="geometry" />
        </mxCell>
        <mxCell id="XYb0ZHMh9JhdsdhIbKo0-53" value="+ static getCelebrity(id: Int): Celebrity" style="text;strokeColor=none;fillColor=none;align=left;verticalAlign=top;spacingLeft=4;spacingRight=4;overflow=hidden;rotatable=0;points=[[0,0.5],[1,0.5]];portConstraint=eastwest;whiteSpace=wrap;html=1;" parent="XYb0ZHMh9JhdsdhIbKo0-50" vertex="1">
          <mxGeometry y="86" width="250" height="26" as="geometry" />
        </mxCell>
        <mxCell id="PF3ve-ReOAJWcFY7nudU-44" value="Use" style="edgeStyle=orthogonalEdgeStyle;rounded=0;orthogonalLoop=1;jettySize=auto;html=1;exitX=0.5;exitY=0;exitDx=0;exitDy=0;entryX=0;entryY=0.5;entryDx=0;entryDy=0;dashed=1;endArrow=open;endFill=0;" edge="1" parent="WIyWlLk6GJQsqaUBKTNV-1" source="XYb0ZHMh9JhdsdhIbKo0-59" target="PF3ve-ReOAJWcFY7nudU-17">
          <mxGeometry relative="1" as="geometry" />
        </mxCell>
        <mxCell id="XYb0ZHMh9JhdsdhIbKo0-59" value="AuthController" style="swimlane;fontStyle=1;align=center;verticalAlign=top;childLayout=stackLayout;horizontal=1;startSize=26;horizontalStack=0;resizeParent=1;resizeParentMax=0;resizeLast=0;collapsible=1;marginBottom=0;whiteSpace=wrap;html=1;" parent="WIyWlLk6GJQsqaUBKTNV-1" vertex="1">
          <mxGeometry x="527" y="794" width="300" height="112" as="geometry" />
        </mxCell>
        <mxCell id="XYb0ZHMh9JhdsdhIbKo0-61" value="" style="line;strokeWidth=1;fillColor=none;align=left;verticalAlign=middle;spacingTop=-1;spacingLeft=3;spacingRight=3;rotatable=0;labelPosition=right;points=[];portConstraint=eastwest;strokeColor=inherit;" parent="XYb0ZHMh9JhdsdhIbKo0-59" vertex="1">
          <mxGeometry y="26" width="300" height="8" as="geometry" />
        </mxCell>
        <mxCell id="XYb0ZHMh9JhdsdhIbKo0-62" value="+ register(user, password)" style="text;strokeColor=none;fillColor=none;align=left;verticalAlign=top;spacingLeft=4;spacingRight=4;overflow=hidden;rotatable=0;points=[[0,0.5],[1,0.5]];portConstraint=eastwest;whiteSpace=wrap;html=1;" parent="XYb0ZHMh9JhdsdhIbKo0-59" vertex="1">
          <mxGeometry y="34" width="300" height="26" as="geometry" />
        </mxCell>
        <mxCell id="XYb0ZHMh9JhdsdhIbKo0-77" value="+ login(login: Str, password: Str) -&amp;gt; User | None" style="text;strokeColor=none;fillColor=none;align=left;verticalAlign=top;spacingLeft=4;spacingRight=4;overflow=hidden;rotatable=0;points=[[0,0.5],[1,0.5]];portConstraint=eastwest;whiteSpace=wrap;html=1;" parent="XYb0ZHMh9JhdsdhIbKo0-59" vertex="1">
          <mxGeometry y="60" width="300" height="26" as="geometry" />
        </mxCell>
        <mxCell id="PSJUhyCq9VPYlvBbJlN5-6" value="+ validateSession(login: Str, token: Bytes) -&amp;gt; Bool" style="text;strokeColor=none;fillColor=none;align=left;verticalAlign=top;spacingLeft=4;spacingRight=4;overflow=hidden;rotatable=0;points=[[0,0.5],[1,0.5]];portConstraint=eastwest;whiteSpace=wrap;html=1;" vertex="1" parent="XYb0ZHMh9JhdsdhIbKo0-59">
          <mxGeometry y="86" width="300" height="26" as="geometry" />
        </mxCell>
        <mxCell id="XYb0ZHMh9JhdsdhIbKo0-67" value="1" style="endArrow=none;html=1;endSize=12;startArrow=diamondThin;startSize=14;startFill=1;edgeStyle=orthogonalEdgeStyle;align=left;verticalAlign=bottom;rounded=0;entryX=1;entryY=0.5;entryDx=0;entryDy=0;exitX=0;exitY=0.5;exitDx=0;exitDy=0;endFill=0;" parent="WIyWlLk6GJQsqaUBKTNV-1" source="XYb0ZHMh9JhdsdhIbKo0-32" target="XYb0ZHMh9JhdsdhIbKo0-20" edge="1">
          <mxGeometry x="-1" y="3" relative="1" as="geometry">
            <mxPoint x="540" y="240" as="sourcePoint" />
            <mxPoint x="700" y="240" as="targetPoint" />
          </mxGeometry>
        </mxCell>
        <mxCell id="XYb0ZHMh9JhdsdhIbKo0-69" value="1" style="endArrow=none;html=1;endSize=12;startArrow=diamondThin;startSize=14;startFill=1;edgeStyle=orthogonalEdgeStyle;align=left;verticalAlign=bottom;rounded=0;exitX=1;exitY=0.5;exitDx=0;exitDy=0;entryX=0;entryY=0.5;entryDx=0;entryDy=0;endFill=0;" parent="WIyWlLk6GJQsqaUBKTNV-1" source="XYb0ZHMh9JhdsdhIbKo0-12" target="XYb0ZHMh9JhdsdhIbKo0-22" edge="1">
          <mxGeometry x="-1" y="3" relative="1" as="geometry">
            <mxPoint x="280" y="210" as="sourcePoint" />
            <mxPoint x="440" y="210" as="targetPoint" />
          </mxGeometry>
        </mxCell>
        <mxCell id="XYb0ZHMh9JhdsdhIbKo0-74" value="1" style="endArrow=none;html=1;endSize=12;startArrow=diamondThin;startSize=14;startFill=1;edgeStyle=orthogonalEdgeStyle;align=left;verticalAlign=bottom;rounded=0;entryX=0.5;entryY=0;entryDx=0;entryDy=0;endFill=0;" parent="WIyWlLk6GJQsqaUBKTNV-1" target="XYb0ZHMh9JhdsdhIbKo0-36" edge="1">
          <mxGeometry x="-1" y="3" relative="1" as="geometry">
            <mxPoint x="455" y="292" as="sourcePoint" />
            <mxPoint x="550" y="330" as="targetPoint" />
            <Array as="points">
              <mxPoint x="455" y="380" />
              <mxPoint x="455" y="380" />
            </Array>
          </mxGeometry>
        </mxCell>
        <mxCell id="XYb0ZHMh9JhdsdhIbKo0-76" value="1" style="endArrow=none;html=1;endSize=12;startArrow=diamondThin;startSize=14;startFill=1;edgeStyle=orthogonalEdgeStyle;align=left;verticalAlign=bottom;rounded=0;entryX=1;entryY=0;entryDx=0;entryDy=0;exitX=0;exitY=0.5;exitDx=0;exitDy=0;endFill=0;" parent="WIyWlLk6GJQsqaUBKTNV-1" source="PSJUhyCq9VPYlvBbJlN5-1" target="XYb0ZHMh9JhdsdhIbKo0-36" edge="1">
          <mxGeometry x="-1" y="3" relative="1" as="geometry">
            <mxPoint x="600" y="340" as="sourcePoint" />
            <mxPoint x="760" y="340" as="targetPoint" />
            <Array as="points">
              <mxPoint x="620" y="329" />
              <mxPoint x="610" y="330" />
            </Array>
          </mxGeometry>
        </mxCell>
        <mxCell id="XYb0ZHMh9JhdsdhIbKo0-80" value="1" style="endArrow=none;html=1;endSize=12;startArrow=diamondThin;startSize=14;startFill=0;edgeStyle=orthogonalEdgeStyle;align=left;verticalAlign=bottom;rounded=0;exitX=0;exitY=0.5;exitDx=0;exitDy=0;entryX=0.25;entryY=0;entryDx=0;entryDy=0;endFill=0;" parent="WIyWlLk6GJQsqaUBKTNV-1" source="XYb0ZHMh9JhdsdhIbKo0-53" target="XYb0ZHMh9JhdsdhIbKo0-0" edge="1">
          <mxGeometry x="-0.6039" y="1" relative="1" as="geometry">
            <mxPoint x="90" y="410" as="sourcePoint" />
            <mxPoint x="250" y="410" as="targetPoint" />
            <Array as="points">
              <mxPoint y="139" />
              <mxPoint y="140" />
              <mxPoint x="-20" y="140" />
              <mxPoint x="-20" y="170" />
              <mxPoint x="60" y="170" />
            </Array>
            <mxPoint as="offset" />
          </mxGeometry>
        </mxCell>
        <mxCell id="XYb0ZHMh9JhdsdhIbKo0-81" value="1" style="endArrow=none;html=1;endSize=12;startArrow=diamondThin;startSize=14;startFill=0;edgeStyle=orthogonalEdgeStyle;align=left;verticalAlign=bottom;rounded=0;exitX=0.75;exitY=0;exitDx=0;exitDy=0;entryX=1;entryY=0.5;entryDx=0;entryDy=0;endFill=0;" parent="WIyWlLk6GJQsqaUBKTNV-1" source="XYb0ZHMh9JhdsdhIbKo0-0" target="XYb0ZHMh9JhdsdhIbKo0-53" edge="1">
          <mxGeometry x="-0.8725" y="-10" relative="1" as="geometry">
            <mxPoint x="170" y="360" as="sourcePoint" />
            <mxPoint x="260" y="140" as="targetPoint" />
            <Array as="points">
              <mxPoint x="210" y="170" />
              <mxPoint x="290" y="170" />
              <mxPoint x="290" y="140" />
            </Array>
            <mxPoint as="offset" />
          </mxGeometry>
        </mxCell>
        <mxCell id="v_5QQle6XalpUN1hy-oC-3" value="&lt;span style=&quot;font-size: 24px;&quot;&gt;&lt;b&gt;Model&lt;/b&gt;&lt;/span&gt;" style="text;html=1;align=center;verticalAlign=middle;whiteSpace=wrap;rounded=0;" parent="WIyWlLk6GJQsqaUBKTNV-1" vertex="1">
          <mxGeometry x="375" width="90" height="30" as="geometry" />
        </mxCell>
        <mxCell id="v_5QQle6XalpUN1hy-oC-4" value="MovieApp" style="swimlane;fontStyle=1;align=center;verticalAlign=top;childLayout=stackLayout;horizontal=1;startSize=26;horizontalStack=0;resizeParent=1;resizeParentMax=0;resizeLast=0;collapsible=1;marginBottom=0;whiteSpace=wrap;html=1;" parent="WIyWlLk6GJQsqaUBKTNV-1" vertex="1">
          <mxGeometry x="-70" y="770" width="220" height="112" as="geometry" />
        </mxCell>
        <mxCell id="v_5QQle6XalpUN1hy-oC-5" value="- __view_controller: ViewController" style="text;strokeColor=none;fillColor=none;align=left;verticalAlign=top;spacingLeft=4;spacingRight=4;overflow=hidden;rotatable=0;points=[[0,0.5],[1,0.5]];portConstraint=eastwest;whiteSpace=wrap;html=1;" parent="v_5QQle6XalpUN1hy-oC-4" vertex="1">
          <mxGeometry y="26" width="220" height="26" as="geometry" />
        </mxCell>
        <mxCell id="v_5QQle6XalpUN1hy-oC-6" value="" style="line;strokeWidth=1;fillColor=none;align=left;verticalAlign=middle;spacingTop=-1;spacingLeft=3;spacingRight=3;rotatable=0;labelPosition=right;points=[];portConstraint=eastwest;strokeColor=inherit;" parent="v_5QQle6XalpUN1hy-oC-4" vertex="1">
          <mxGeometry y="52" width="220" height="8" as="geometry" />
        </mxCell>
        <mxCell id="v_5QQle6XalpUN1hy-oC-7" value="+ launch()" style="text;strokeColor=none;fillColor=none;align=left;verticalAlign=top;spacingLeft=4;spacingRight=4;overflow=hidden;rotatable=0;points=[[0,0.5],[1,0.5]];portConstraint=eastwest;whiteSpace=wrap;html=1;" parent="v_5QQle6XalpUN1hy-oC-4" vertex="1">
          <mxGeometry y="60" width="220" height="26" as="geometry" />
        </mxCell>
        <mxCell id="PF3ve-ReOAJWcFY7nudU-51" value="+ quit()" style="text;strokeColor=none;fillColor=none;align=left;verticalAlign=top;spacingLeft=4;spacingRight=4;overflow=hidden;rotatable=0;points=[[0,0.5],[1,0.5]];portConstraint=eastwest;whiteSpace=wrap;html=1;" vertex="1" parent="v_5QQle6XalpUN1hy-oC-4">
          <mxGeometry y="86" width="220" height="26" as="geometry" />
        </mxCell>
        <mxCell id="PF3ve-ReOAJWcFY7nudU-50" style="edgeStyle=orthogonalEdgeStyle;rounded=0;orthogonalLoop=1;jettySize=auto;html=1;entryX=1;entryY=0.5;entryDx=0;entryDy=0;endArrow=diamondThin;endFill=1;endSize=14;" edge="1" parent="WIyWlLk6GJQsqaUBKTNV-1" source="v_5QQle6XalpUN1hy-oC-8" target="v_5QQle6XalpUN1hy-oC-7">
          <mxGeometry relative="1" as="geometry">
            <Array as="points">
              <mxPoint x="673" y="1140" />
              <mxPoint x="170" y="1140" />
              <mxPoint x="170" y="843" />
            </Array>
          </mxGeometry>
        </mxCell>
        <mxCell id="v_5QQle6XalpUN1hy-oC-8" value="ViewController" style="swimlane;fontStyle=1;align=center;verticalAlign=top;childLayout=stackLayout;horizontal=1;startSize=26;horizontalStack=0;resizeParent=1;resizeParentMax=0;resizeLast=0;collapsible=1;marginBottom=0;whiteSpace=wrap;html=1;" parent="WIyWlLk6GJQsqaUBKTNV-1" vertex="1">
          <mxGeometry x="527" y="930" width="293" height="138" as="geometry" />
        </mxCell>
        <mxCell id="v_5QQle6XalpUN1hy-oC-9" value="- __current_view: View" style="text;strokeColor=none;fillColor=none;align=left;verticalAlign=top;spacingLeft=4;spacingRight=4;overflow=hidden;rotatable=0;points=[[0,0.5],[1,0.5]];portConstraint=eastwest;whiteSpace=wrap;html=1;" parent="v_5QQle6XalpUN1hy-oC-8" vertex="1">
          <mxGeometry y="26" width="293" height="26" as="geometry" />
        </mxCell>
        <mxCell id="PF3ve-ReOAJWcFY7nudU-34" value="- __ac: AuthController" style="text;strokeColor=none;fillColor=none;align=left;verticalAlign=top;spacingLeft=4;spacingRight=4;overflow=hidden;rotatable=0;points=[[0,0.5],[1,0.5]];portConstraint=eastwest;whiteSpace=wrap;html=1;" vertex="1" parent="v_5QQle6XalpUN1hy-oC-8">
          <mxGeometry y="52" width="293" height="26" as="geometry" />
        </mxCell>
        <mxCell id="v_5QQle6XalpUN1hy-oC-10" value="" style="line;strokeWidth=1;fillColor=none;align=left;verticalAlign=middle;spacingTop=-1;spacingLeft=3;spacingRight=3;rotatable=0;labelPosition=right;points=[];portConstraint=eastwest;strokeColor=inherit;" parent="v_5QQle6XalpUN1hy-oC-8" vertex="1">
          <mxGeometry y="78" width="293" height="8" as="geometry" />
        </mxCell>
        <mxCell id="v_5QQle6XalpUN1hy-oC-11" value="+ setCurrentView&amp;lt;ViewT&amp;gt;()" style="text;strokeColor=none;fillColor=none;align=left;verticalAlign=top;spacingLeft=4;spacingRight=4;overflow=hidden;rotatable=0;points=[[0,0.5],[1,0.5]];portConstraint=eastwest;whiteSpace=wrap;html=1;" parent="v_5QQle6XalpUN1hy-oC-8" vertex="1">
          <mxGeometry y="86" width="293" height="26" as="geometry" />
        </mxCell>
        <mxCell id="PF3ve-ReOAJWcFY7nudU-35" value="- checkAccess&amp;lt;ViewT&amp;gt;(user_id): enum(Access)" style="text;strokeColor=none;fillColor=none;align=left;verticalAlign=top;spacingLeft=4;spacingRight=4;overflow=hidden;rotatable=0;points=[[0,0.5],[1,0.5]];portConstraint=eastwest;whiteSpace=wrap;html=1;" vertex="1" parent="v_5QQle6XalpUN1hy-oC-8">
          <mxGeometry y="112" width="293" height="26" as="geometry" />
        </mxCell>
        <mxCell id="v_5QQle6XalpUN1hy-oC-16" value="LoginView" style="swimlane;fontStyle=1;align=center;verticalAlign=top;childLayout=stackLayout;horizontal=1;startSize=26;horizontalStack=0;resizeParent=1;resizeParentMax=0;resizeLast=0;collapsible=1;marginBottom=0;whiteSpace=wrap;html=1;" parent="WIyWlLk6GJQsqaUBKTNV-1" vertex="1">
          <mxGeometry x="1390" y="757" width="160" height="112" as="geometry" />
        </mxCell>
        <mxCell id="v_5QQle6XalpUN1hy-oC-17" value="- __vc: ViewController" style="text;strokeColor=none;fillColor=none;align=left;verticalAlign=top;spacingLeft=4;spacingRight=4;overflow=hidden;rotatable=0;points=[[0,0.5],[1,0.5]];portConstraint=eastwest;whiteSpace=wrap;html=1;" parent="v_5QQle6XalpUN1hy-oC-16" vertex="1">
          <mxGeometry y="26" width="160" height="26" as="geometry" />
        </mxCell>
        <mxCell id="PF3ve-ReOAJWcFY7nudU-28" value="- __ac: AuthController" style="text;strokeColor=none;fillColor=none;align=left;verticalAlign=top;spacingLeft=4;spacingRight=4;overflow=hidden;rotatable=0;points=[[0,0.5],[1,0.5]];portConstraint=eastwest;whiteSpace=wrap;html=1;" vertex="1" parent="v_5QQle6XalpUN1hy-oC-16">
          <mxGeometry y="52" width="160" height="26" as="geometry" />
        </mxCell>
        <mxCell id="v_5QQle6XalpUN1hy-oC-18" value="" style="line;strokeWidth=1;fillColor=none;align=left;verticalAlign=middle;spacingTop=-1;spacingLeft=3;spacingRight=3;rotatable=0;labelPosition=right;points=[];portConstraint=eastwest;strokeColor=inherit;" parent="v_5QQle6XalpUN1hy-oC-16" vertex="1">
          <mxGeometry y="78" width="160" height="8" as="geometry" />
        </mxCell>
        <mxCell id="v_5QQle6XalpUN1hy-oC-19" value="+ show()" style="text;strokeColor=none;fillColor=none;align=left;verticalAlign=top;spacingLeft=4;spacingRight=4;overflow=hidden;rotatable=0;points=[[0,0.5],[1,0.5]];portConstraint=eastwest;whiteSpace=wrap;html=1;" parent="v_5QQle6XalpUN1hy-oC-16" vertex="1">
          <mxGeometry y="86" width="160" height="26" as="geometry" />
        </mxCell>
        <mxCell id="v_5QQle6XalpUN1hy-oC-20" value="RegisterView" style="swimlane;fontStyle=1;align=center;verticalAlign=top;childLayout=stackLayout;horizontal=1;startSize=26;horizontalStack=0;resizeParent=1;resizeParentMax=0;resizeLast=0;collapsible=1;marginBottom=0;whiteSpace=wrap;html=1;" parent="WIyWlLk6GJQsqaUBKTNV-1" vertex="1">
          <mxGeometry x="1190" y="930" width="160" height="112" as="geometry" />
        </mxCell>
        <mxCell id="v_5QQle6XalpUN1hy-oC-21" value="- __vc: ViewController" style="text;strokeColor=none;fillColor=none;align=left;verticalAlign=top;spacingLeft=4;spacingRight=4;overflow=hidden;rotatable=0;points=[[0,0.5],[1,0.5]];portConstraint=eastwest;whiteSpace=wrap;html=1;" parent="v_5QQle6XalpUN1hy-oC-20" vertex="1">
          <mxGeometry y="26" width="160" height="26" as="geometry" />
        </mxCell>
        <mxCell id="PF3ve-ReOAJWcFY7nudU-25" value="- __ac: AuthController" style="text;strokeColor=none;fillColor=none;align=left;verticalAlign=top;spacingLeft=4;spacingRight=4;overflow=hidden;rotatable=0;points=[[0,0.5],[1,0.5]];portConstraint=eastwest;whiteSpace=wrap;html=1;" vertex="1" parent="v_5QQle6XalpUN1hy-oC-20">
          <mxGeometry y="52" width="160" height="26" as="geometry" />
        </mxCell>
        <mxCell id="v_5QQle6XalpUN1hy-oC-22" value="" style="line;strokeWidth=1;fillColor=none;align=left;verticalAlign=middle;spacingTop=-1;spacingLeft=3;spacingRight=3;rotatable=0;labelPosition=right;points=[];portConstraint=eastwest;strokeColor=inherit;" parent="v_5QQle6XalpUN1hy-oC-20" vertex="1">
          <mxGeometry y="78" width="160" height="8" as="geometry" />
        </mxCell>
        <mxCell id="v_5QQle6XalpUN1hy-oC-23" value="+ show()" style="text;strokeColor=none;fillColor=none;align=left;verticalAlign=top;spacingLeft=4;spacingRight=4;overflow=hidden;rotatable=0;points=[[0,0.5],[1,0.5]];portConstraint=eastwest;whiteSpace=wrap;html=1;" parent="v_5QQle6XalpUN1hy-oC-20" vertex="1">
          <mxGeometry y="86" width="160" height="26" as="geometry" />
        </mxCell>
        <mxCell id="v_5QQle6XalpUN1hy-oC-24" value="MainPageView" style="swimlane;fontStyle=1;align=center;verticalAlign=top;childLayout=stackLayout;horizontal=1;startSize=26;horizontalStack=0;resizeParent=1;resizeParentMax=0;resizeLast=0;collapsible=1;marginBottom=0;whiteSpace=wrap;html=1;" parent="WIyWlLk6GJQsqaUBKTNV-1" vertex="1">
          <mxGeometry x="990" y="757" width="160" height="112" as="geometry" />
        </mxCell>
        <mxCell id="v_5QQle6XalpUN1hy-oC-25" value="- __vc: ViewController" style="text;strokeColor=none;fillColor=none;align=left;verticalAlign=top;spacingLeft=4;spacingRight=4;overflow=hidden;rotatable=0;points=[[0,0.5],[1,0.5]];portConstraint=eastwest;whiteSpace=wrap;html=1;" parent="v_5QQle6XalpUN1hy-oC-24" vertex="1">
          <mxGeometry y="26" width="160" height="26" as="geometry" />
        </mxCell>
        <mxCell id="PF3ve-ReOAJWcFY7nudU-5" value="- __mc: MovieController" style="text;strokeColor=none;fillColor=none;align=left;verticalAlign=top;spacingLeft=4;spacingRight=4;overflow=hidden;rotatable=0;points=[[0,0.5],[1,0.5]];portConstraint=eastwest;whiteSpace=wrap;html=1;" vertex="1" parent="v_5QQle6XalpUN1hy-oC-24">
          <mxGeometry y="52" width="160" height="26" as="geometry" />
        </mxCell>
        <mxCell id="v_5QQle6XalpUN1hy-oC-26" value="" style="line;strokeWidth=1;fillColor=none;align=left;verticalAlign=middle;spacingTop=-1;spacingLeft=3;spacingRight=3;rotatable=0;labelPosition=right;points=[];portConstraint=eastwest;strokeColor=inherit;" parent="v_5QQle6XalpUN1hy-oC-24" vertex="1">
          <mxGeometry y="78" width="160" height="8" as="geometry" />
        </mxCell>
        <mxCell id="v_5QQle6XalpUN1hy-oC-27" value="+ show()" style="text;strokeColor=none;fillColor=none;align=left;verticalAlign=top;spacingLeft=4;spacingRight=4;overflow=hidden;rotatable=0;points=[[0,0.5],[1,0.5]];portConstraint=eastwest;whiteSpace=wrap;html=1;" parent="v_5QQle6XalpUN1hy-oC-24" vertex="1">
          <mxGeometry y="86" width="160" height="26" as="geometry" />
        </mxCell>
        <mxCell id="v_5QQle6XalpUN1hy-oC-28" value="FilmDetailView" style="swimlane;fontStyle=1;align=center;verticalAlign=top;childLayout=stackLayout;horizontal=1;startSize=26;horizontalStack=0;resizeParent=1;resizeParentMax=0;resizeLast=0;collapsible=1;marginBottom=0;whiteSpace=wrap;html=1;" parent="WIyWlLk6GJQsqaUBKTNV-1" vertex="1">
          <mxGeometry x="990" y="894" width="160" height="112" as="geometry" />
        </mxCell>
        <mxCell id="v_5QQle6XalpUN1hy-oC-29" value="- __vc: ViewController" style="text;strokeColor=none;fillColor=none;align=left;verticalAlign=top;spacingLeft=4;spacingRight=4;overflow=hidden;rotatable=0;points=[[0,0.5],[1,0.5]];portConstraint=eastwest;whiteSpace=wrap;html=1;" parent="v_5QQle6XalpUN1hy-oC-28" vertex="1">
          <mxGeometry y="26" width="160" height="26" as="geometry" />
        </mxCell>
        <mxCell id="PF3ve-ReOAJWcFY7nudU-6" value="- __mc: MovieController" style="text;strokeColor=none;fillColor=none;align=left;verticalAlign=top;spacingLeft=4;spacingRight=4;overflow=hidden;rotatable=0;points=[[0,0.5],[1,0.5]];portConstraint=eastwest;whiteSpace=wrap;html=1;" vertex="1" parent="v_5QQle6XalpUN1hy-oC-28">
          <mxGeometry y="52" width="160" height="26" as="geometry" />
        </mxCell>
        <mxCell id="v_5QQle6XalpUN1hy-oC-30" value="" style="line;strokeWidth=1;fillColor=none;align=left;verticalAlign=middle;spacingTop=-1;spacingLeft=3;spacingRight=3;rotatable=0;labelPosition=right;points=[];portConstraint=eastwest;strokeColor=inherit;" parent="v_5QQle6XalpUN1hy-oC-28" vertex="1">
          <mxGeometry y="78" width="160" height="8" as="geometry" />
        </mxCell>
        <mxCell id="v_5QQle6XalpUN1hy-oC-31" value="+ show()" style="text;strokeColor=none;fillColor=none;align=left;verticalAlign=top;spacingLeft=4;spacingRight=4;overflow=hidden;rotatable=0;points=[[0,0.5],[1,0.5]];portConstraint=eastwest;whiteSpace=wrap;html=1;" parent="v_5QQle6XalpUN1hy-oC-28" vertex="1">
          <mxGeometry y="86" width="160" height="26" as="geometry" />
        </mxCell>
        <mxCell id="v_5QQle6XalpUN1hy-oC-32" value="SearchResultsView" style="swimlane;fontStyle=1;align=center;verticalAlign=top;childLayout=stackLayout;horizontal=1;startSize=26;horizontalStack=0;resizeParent=1;resizeParentMax=0;resizeLast=0;collapsible=1;marginBottom=0;whiteSpace=wrap;html=1;" parent="WIyWlLk6GJQsqaUBKTNV-1" vertex="1">
          <mxGeometry x="1190" y="682" width="160" height="112" as="geometry" />
        </mxCell>
        <mxCell id="v_5QQle6XalpUN1hy-oC-33" value="- __vc: ViewController" style="text;strokeColor=none;fillColor=none;align=left;verticalAlign=top;spacingLeft=4;spacingRight=4;overflow=hidden;rotatable=0;points=[[0,0.5],[1,0.5]];portConstraint=eastwest;whiteSpace=wrap;html=1;" parent="v_5QQle6XalpUN1hy-oC-32" vertex="1">
          <mxGeometry y="26" width="160" height="26" as="geometry" />
        </mxCell>
        <mxCell id="PF3ve-ReOAJWcFY7nudU-26" value="- __mc: MovieController" style="text;strokeColor=none;fillColor=none;align=left;verticalAlign=top;spacingLeft=4;spacingRight=4;overflow=hidden;rotatable=0;points=[[0,0.5],[1,0.5]];portConstraint=eastwest;whiteSpace=wrap;html=1;" vertex="1" parent="v_5QQle6XalpUN1hy-oC-32">
          <mxGeometry y="52" width="160" height="26" as="geometry" />
        </mxCell>
        <mxCell id="v_5QQle6XalpUN1hy-oC-34" value="" style="line;strokeWidth=1;fillColor=none;align=left;verticalAlign=middle;spacingTop=-1;spacingLeft=3;spacingRight=3;rotatable=0;labelPosition=right;points=[];portConstraint=eastwest;strokeColor=inherit;" parent="v_5QQle6XalpUN1hy-oC-32" vertex="1">
          <mxGeometry y="78" width="160" height="8" as="geometry" />
        </mxCell>
        <mxCell id="v_5QQle6XalpUN1hy-oC-35" value="+ show()" style="text;strokeColor=none;fillColor=none;align=left;verticalAlign=top;spacingLeft=4;spacingRight=4;overflow=hidden;rotatable=0;points=[[0,0.5],[1,0.5]];portConstraint=eastwest;whiteSpace=wrap;html=1;" parent="v_5QQle6XalpUN1hy-oC-32" vertex="1">
          <mxGeometry y="86" width="160" height="26" as="geometry" />
        </mxCell>
        <mxCell id="v_5QQle6XalpUN1hy-oC-36" value="UserView" style="swimlane;fontStyle=1;align=center;verticalAlign=top;childLayout=stackLayout;horizontal=1;startSize=26;horizontalStack=0;resizeParent=1;resizeParentMax=0;resizeLast=0;collapsible=1;marginBottom=0;whiteSpace=wrap;html=1;" parent="WIyWlLk6GJQsqaUBKTNV-1" vertex="1">
          <mxGeometry x="1390" y="894" width="160" height="112" as="geometry" />
        </mxCell>
        <mxCell id="v_5QQle6XalpUN1hy-oC-37" value="- __vc: ViewController" style="text;strokeColor=none;fillColor=none;align=left;verticalAlign=top;spacingLeft=4;spacingRight=4;overflow=hidden;rotatable=0;points=[[0,0.5],[1,0.5]];portConstraint=eastwest;whiteSpace=wrap;html=1;" parent="v_5QQle6XalpUN1hy-oC-36" vertex="1">
          <mxGeometry y="26" width="160" height="26" as="geometry" />
        </mxCell>
        <mxCell id="PF3ve-ReOAJWcFY7nudU-38" value="- __uc: UserController" style="text;strokeColor=none;fillColor=none;align=left;verticalAlign=top;spacingLeft=4;spacingRight=4;overflow=hidden;rotatable=0;points=[[0,0.5],[1,0.5]];portConstraint=eastwest;whiteSpace=wrap;html=1;" vertex="1" parent="v_5QQle6XalpUN1hy-oC-36">
          <mxGeometry y="52" width="160" height="26" as="geometry" />
        </mxCell>
        <mxCell id="v_5QQle6XalpUN1hy-oC-38" value="" style="line;strokeWidth=1;fillColor=none;align=left;verticalAlign=middle;spacingTop=-1;spacingLeft=3;spacingRight=3;rotatable=0;labelPosition=right;points=[];portConstraint=eastwest;strokeColor=inherit;" parent="v_5QQle6XalpUN1hy-oC-36" vertex="1">
          <mxGeometry y="78" width="160" height="8" as="geometry" />
        </mxCell>
        <mxCell id="v_5QQle6XalpUN1hy-oC-39" value="+ show()" style="text;strokeColor=none;fillColor=none;align=left;verticalAlign=top;spacingLeft=4;spacingRight=4;overflow=hidden;rotatable=0;points=[[0,0.5],[1,0.5]];portConstraint=eastwest;whiteSpace=wrap;html=1;" parent="v_5QQle6XalpUN1hy-oC-36" vertex="1">
          <mxGeometry y="86" width="160" height="26" as="geometry" />
        </mxCell>
        <mxCell id="v_5QQle6XalpUN1hy-oC-40" value="«interface»&lt;br&gt;&lt;b&gt;View&lt;/b&gt;" style="html=1;whiteSpace=wrap;" parent="WIyWlLk6GJQsqaUBKTNV-1" vertex="1">
          <mxGeometry x="1210" y="840" width="120" height="50" as="geometry" />
        </mxCell>
        <mxCell id="v_5QQle6XalpUN1hy-oC-43" value="&lt;font style=&quot;font-size: 24px;&quot;&gt;&lt;b&gt;View&lt;/b&gt;&lt;/font&gt;" style="text;html=1;align=center;verticalAlign=middle;whiteSpace=wrap;rounded=0;" parent="WIyWlLk6GJQsqaUBKTNV-1" vertex="1">
          <mxGeometry x="1240" y="636" width="60" height="30" as="geometry" />
        </mxCell>
        <mxCell id="PSJUhyCq9VPYlvBbJlN5-13" value="MovieFilters" style="swimlane;fontStyle=0;childLayout=stackLayout;horizontal=1;startSize=26;fillColor=none;horizontalStack=0;resizeParent=1;resizeParentMax=0;resizeLast=0;collapsible=1;marginBottom=0;whiteSpace=wrap;html=1;" vertex="1" parent="WIyWlLk6GJQsqaUBKTNV-1">
          <mxGeometry x="25" y="530" width="220" height="106" as="geometry" />
        </mxCell>
        <mxCell id="PSJUhyCq9VPYlvBbJlN5-14" value="+ name: Str" style="text;strokeColor=none;fillColor=none;align=left;verticalAlign=top;spacingLeft=4;spacingRight=4;overflow=hidden;rotatable=0;points=[[0,0.5],[1,0.5]];portConstraint=eastwest;whiteSpace=wrap;html=1;" vertex="1" parent="PSJUhyCq9VPYlvBbJlN5-13">
          <mxGeometry y="26" width="220" height="26" as="geometry" />
        </mxCell>
        <mxCell id="PSJUhyCq9VPYlvBbJlN5-15" value="+ genre: Str" style="text;strokeColor=none;fillColor=none;align=left;verticalAlign=top;spacingLeft=4;spacingRight=4;overflow=hidden;rotatable=0;points=[[0,0.5],[1,0.5]];portConstraint=eastwest;whiteSpace=wrap;html=1;" vertex="1" parent="PSJUhyCq9VPYlvBbJlN5-13">
          <mxGeometry y="52" width="220" height="28" as="geometry" />
        </mxCell>
        <mxCell id="PSJUhyCq9VPYlvBbJlN5-16" value="+ orderBy: enum MovieOrdering" style="text;strokeColor=none;fillColor=none;align=left;verticalAlign=top;spacingLeft=4;spacingRight=4;overflow=hidden;rotatable=0;points=[[0,0.5],[1,0.5]];portConstraint=eastwest;whiteSpace=wrap;html=1;" vertex="1" parent="PSJUhyCq9VPYlvBbJlN5-13">
          <mxGeometry y="80" width="220" height="26" as="geometry" />
        </mxCell>
        <mxCell id="PSJUhyCq9VPYlvBbJlN5-20" value="" style="endArrow=block;dashed=1;endFill=0;endSize=12;html=1;rounded=0;entryX=0;entryY=0;entryDx=0;entryDy=0;exitX=1;exitY=0.5;exitDx=0;exitDy=0;" edge="1" parent="WIyWlLk6GJQsqaUBKTNV-1" source="v_5QQle6XalpUN1hy-oC-25" target="v_5QQle6XalpUN1hy-oC-40">
          <mxGeometry width="160" relative="1" as="geometry">
            <mxPoint x="1150" y="813" as="sourcePoint" />
            <mxPoint x="1310" y="812.5699999999999" as="targetPoint" />
          </mxGeometry>
        </mxCell>
        <mxCell id="PSJUhyCq9VPYlvBbJlN5-21" value="" style="endArrow=block;dashed=1;endFill=0;endSize=12;html=1;rounded=0;entryX=0;entryY=1;entryDx=0;entryDy=0;exitX=1;exitY=0.5;exitDx=0;exitDy=0;" edge="1" parent="WIyWlLk6GJQsqaUBKTNV-1" source="v_5QQle6XalpUN1hy-oC-29" target="v_5QQle6XalpUN1hy-oC-40">
          <mxGeometry width="160" relative="1" as="geometry">
            <mxPoint x="1160" y="823" as="sourcePoint" />
            <mxPoint x="1220" y="850" as="targetPoint" />
          </mxGeometry>
        </mxCell>
        <mxCell id="PSJUhyCq9VPYlvBbJlN5-22" value="" style="endArrow=block;dashed=1;endFill=0;endSize=12;html=1;rounded=0;entryX=0.5;entryY=0;entryDx=0;entryDy=0;exitX=0.495;exitY=0.957;exitDx=0;exitDy=0;exitPerimeter=0;" edge="1" parent="WIyWlLk6GJQsqaUBKTNV-1" source="v_5QQle6XalpUN1hy-oC-35" target="v_5QQle6XalpUN1hy-oC-40">
          <mxGeometry width="160" relative="1" as="geometry">
            <mxPoint x="1270" y="810" as="sourcePoint" />
            <mxPoint x="1220" y="850" as="targetPoint" />
          </mxGeometry>
        </mxCell>
        <mxCell id="PSJUhyCq9VPYlvBbJlN5-23" value="" style="endArrow=block;dashed=1;endFill=0;endSize=12;html=1;rounded=0;entryX=0.5;entryY=1;entryDx=0;entryDy=0;exitX=0.5;exitY=0;exitDx=0;exitDy=0;" edge="1" parent="WIyWlLk6GJQsqaUBKTNV-1" source="v_5QQle6XalpUN1hy-oC-20" target="v_5QQle6XalpUN1hy-oC-40">
          <mxGeometry width="160" relative="1" as="geometry">
            <mxPoint x="1280" y="820" as="sourcePoint" />
            <mxPoint x="1280" y="850" as="targetPoint" />
          </mxGeometry>
        </mxCell>
        <mxCell id="PSJUhyCq9VPYlvBbJlN5-24" value="" style="endArrow=block;dashed=1;endFill=0;endSize=12;html=1;rounded=0;entryX=1;entryY=1;entryDx=0;entryDy=0;exitX=0;exitY=0.5;exitDx=0;exitDy=0;" edge="1" parent="WIyWlLk6GJQsqaUBKTNV-1" source="v_5QQle6XalpUN1hy-oC-37" target="v_5QQle6XalpUN1hy-oC-40">
          <mxGeometry width="160" relative="1" as="geometry">
            <mxPoint x="1280" y="940" as="sourcePoint" />
            <mxPoint x="1280" y="900" as="targetPoint" />
          </mxGeometry>
        </mxCell>
        <mxCell id="PSJUhyCq9VPYlvBbJlN5-25" value="" style="endArrow=block;dashed=1;endFill=0;endSize=12;html=1;rounded=0;entryX=1;entryY=0;entryDx=0;entryDy=0;exitX=0;exitY=0.5;exitDx=0;exitDy=0;" edge="1" parent="WIyWlLk6GJQsqaUBKTNV-1" source="v_5QQle6XalpUN1hy-oC-17" target="v_5QQle6XalpUN1hy-oC-40">
          <mxGeometry width="160" relative="1" as="geometry">
            <mxPoint x="1400" y="933" as="sourcePoint" />
            <mxPoint x="1340" y="900" as="targetPoint" />
          </mxGeometry>
        </mxCell>
        <mxCell id="PF3ve-ReOAJWcFY7nudU-45" value="Use" style="edgeStyle=orthogonalEdgeStyle;rounded=0;orthogonalLoop=1;jettySize=auto;html=1;exitX=0.5;exitY=0;exitDx=0;exitDy=0;entryX=1;entryY=0.5;entryDx=0;entryDy=0;dashed=1;endArrow=open;endFill=0;" edge="1" parent="WIyWlLk6GJQsqaUBKTNV-1" source="PSJUhyCq9VPYlvBbJlN5-26" target="PSJUhyCq9VPYlvBbJlN5-12">
          <mxGeometry relative="1" as="geometry" />
        </mxCell>
        <mxCell id="PSJUhyCq9VPYlvBbJlN5-26" value="MovieController" style="swimlane;fontStyle=1;align=center;verticalAlign=top;childLayout=stackLayout;horizontal=1;startSize=26;horizontalStack=0;resizeParent=1;resizeParentMax=0;resizeLast=0;collapsible=1;marginBottom=0;whiteSpace=wrap;html=1;" vertex="1" parent="WIyWlLk6GJQsqaUBKTNV-1">
          <mxGeometry x="221" y="794" width="280" height="138" as="geometry" />
        </mxCell>
        <mxCell id="PSJUhyCq9VPYlvBbJlN5-28" value="" style="line;strokeWidth=1;fillColor=none;align=left;verticalAlign=middle;spacingTop=-1;spacingLeft=3;spacingRight=3;rotatable=0;labelPosition=right;points=[];portConstraint=eastwest;strokeColor=inherit;" vertex="1" parent="PSJUhyCq9VPYlvBbJlN5-26">
          <mxGeometry y="26" width="280" height="8" as="geometry" />
        </mxCell>
        <mxCell id="PSJUhyCq9VPYlvBbJlN5-29" value="+ addReview(Review r)" style="text;strokeColor=none;fillColor=none;align=left;verticalAlign=top;spacingLeft=4;spacingRight=4;overflow=hidden;rotatable=0;points=[[0,0.5],[1,0.5]];portConstraint=eastwest;whiteSpace=wrap;html=1;" vertex="1" parent="PSJUhyCq9VPYlvBbJlN5-26">
          <mxGeometry y="34" width="280" height="26" as="geometry" />
        </mxCell>
        <mxCell id="PSJUhyCq9VPYlvBbJlN5-30" value="+ addCommentTo(review_id: int)" style="text;strokeColor=none;fillColor=none;align=left;verticalAlign=top;spacingLeft=4;spacingRight=4;overflow=hidden;rotatable=0;points=[[0,0.5],[1,0.5]];portConstraint=eastwest;whiteSpace=wrap;html=1;" vertex="1" parent="PSJUhyCq9VPYlvBbJlN5-26">
          <mxGeometry y="60" width="280" height="26" as="geometry" />
        </mxCell>
        <mxCell id="PSJUhyCq9VPYlvBbJlN5-31" value="+ getMovieDetails(): Movie" style="text;strokeColor=none;fillColor=none;align=left;verticalAlign=top;spacingLeft=4;spacingRight=4;overflow=hidden;rotatable=0;points=[[0,0.5],[1,0.5]];portConstraint=eastwest;whiteSpace=wrap;html=1;" vertex="1" parent="PSJUhyCq9VPYlvBbJlN5-26">
          <mxGeometry y="86" width="280" height="26" as="geometry" />
        </mxCell>
        <mxCell id="PF3ve-ReOAJWcFY7nudU-4" value="+ findMovies(filters: MovieFilters): List[(str, id)]" style="text;strokeColor=none;fillColor=none;align=left;verticalAlign=top;spacingLeft=4;spacingRight=4;overflow=hidden;rotatable=0;points=[[0,0.5],[1,0.5]];portConstraint=eastwest;whiteSpace=wrap;html=1;" vertex="1" parent="PSJUhyCq9VPYlvBbJlN5-26">
          <mxGeometry y="112" width="280" height="26" as="geometry" />
        </mxCell>
        <mxCell id="PF3ve-ReOAJWcFY7nudU-47" value="Use" style="edgeStyle=orthogonalEdgeStyle;rounded=0;orthogonalLoop=1;jettySize=auto;html=1;exitX=1;exitY=0.25;exitDx=0;exitDy=0;entryX=1;entryY=0.5;entryDx=0;entryDy=0;dashed=1;endArrow=open;endFill=0;" edge="1" parent="WIyWlLk6GJQsqaUBKTNV-1" source="PF3ve-ReOAJWcFY7nudU-11" target="PSJUhyCq9VPYlvBbJlN5-1">
          <mxGeometry relative="1" as="geometry" />
        </mxCell>
        <mxCell id="PF3ve-ReOAJWcFY7nudU-11" value="AuthModel" style="swimlane;fontStyle=1;align=center;verticalAlign=top;childLayout=stackLayout;horizontal=1;startSize=26;horizontalStack=0;resizeParent=1;resizeParentMax=0;resizeLast=0;collapsible=1;marginBottom=0;whiteSpace=wrap;html=1;" vertex="1" parent="WIyWlLk6GJQsqaUBKTNV-1">
          <mxGeometry x="600" y="473" width="210" height="112" as="geometry" />
        </mxCell>
        <mxCell id="PF3ve-ReOAJWcFY7nudU-13" value="" style="line;strokeWidth=1;fillColor=none;align=left;verticalAlign=middle;spacingTop=-1;spacingLeft=3;spacingRight=3;rotatable=0;labelPosition=right;points=[];portConstraint=eastwest;strokeColor=inherit;" vertex="1" parent="PF3ve-ReOAJWcFY7nudU-11">
          <mxGeometry y="26" width="210" height="8" as="geometry" />
        </mxCell>
        <mxCell id="PF3ve-ReOAJWcFY7nudU-14" value="+ register(User, password)" style="text;strokeColor=none;fillColor=none;align=left;verticalAlign=top;spacingLeft=4;spacingRight=4;overflow=hidden;rotatable=0;points=[[0,0.5],[1,0.5]];portConstraint=eastwest;whiteSpace=wrap;html=1;" vertex="1" parent="PF3ve-ReOAJWcFY7nudU-11">
          <mxGeometry y="34" width="210" height="26" as="geometry" />
        </mxCell>
        <mxCell id="PF3ve-ReOAJWcFY7nudU-15" value="+ matches(User, password)" style="text;strokeColor=none;fillColor=none;align=left;verticalAlign=top;spacingLeft=4;spacingRight=4;overflow=hidden;rotatable=0;points=[[0,0.5],[1,0.5]];portConstraint=eastwest;whiteSpace=wrap;html=1;" vertex="1" parent="PF3ve-ReOAJWcFY7nudU-11">
          <mxGeometry y="60" width="210" height="26" as="geometry" />
        </mxCell>
        <mxCell id="PF3ve-ReOAJWcFY7nudU-17" value="+ validateToken(token): User | None" style="text;strokeColor=none;fillColor=none;align=left;verticalAlign=top;spacingLeft=4;spacingRight=4;overflow=hidden;rotatable=0;points=[[0,0.5],[1,0.5]];portConstraint=eastwest;whiteSpace=wrap;html=1;" vertex="1" parent="PF3ve-ReOAJWcFY7nudU-11">
          <mxGeometry y="86" width="210" height="26" as="geometry" />
        </mxCell>
        <mxCell id="PF3ve-ReOAJWcFY7nudU-29" value="UserController" style="swimlane;fontStyle=1;align=center;verticalAlign=top;childLayout=stackLayout;horizontal=1;startSize=26;horizontalStack=0;resizeParent=1;resizeParentMax=0;resizeLast=0;collapsible=1;marginBottom=0;whiteSpace=wrap;html=1;" vertex="1" parent="WIyWlLk6GJQsqaUBKTNV-1">
          <mxGeometry x="221" y="956" width="279" height="112" as="geometry" />
        </mxCell>
        <mxCell id="PF3ve-ReOAJWcFY7nudU-31" value="" style="line;strokeWidth=1;fillColor=none;align=left;verticalAlign=middle;spacingTop=-1;spacingLeft=3;spacingRight=3;rotatable=0;labelPosition=right;points=[];portConstraint=eastwest;strokeColor=inherit;" vertex="1" parent="PF3ve-ReOAJWcFY7nudU-29">
          <mxGeometry y="26" width="279" height="8" as="geometry" />
        </mxCell>
        <mxCell id="PF3ve-ReOAJWcFY7nudU-32" value="+ getUserDetails(id): User" style="text;strokeColor=none;fillColor=none;align=left;verticalAlign=top;spacingLeft=4;spacingRight=4;overflow=hidden;rotatable=0;points=[[0,0.5],[1,0.5]];portConstraint=eastwest;whiteSpace=wrap;html=1;" vertex="1" parent="PF3ve-ReOAJWcFY7nudU-29">
          <mxGeometry y="34" width="279" height="26" as="geometry" />
        </mxCell>
        <mxCell id="PF3ve-ReOAJWcFY7nudU-33" value="+ deleteAccount(id)" style="text;strokeColor=none;fillColor=none;align=left;verticalAlign=top;spacingLeft=4;spacingRight=4;overflow=hidden;rotatable=0;points=[[0,0.5],[1,0.5]];portConstraint=eastwest;whiteSpace=wrap;html=1;" vertex="1" parent="PF3ve-ReOAJWcFY7nudU-29">
          <mxGeometry y="60" width="279" height="26" as="geometry" />
        </mxCell>
        <mxCell id="PF3ve-ReOAJWcFY7nudU-36" value="+ updateData(new_data: User)" style="text;strokeColor=none;fillColor=none;align=left;verticalAlign=top;spacingLeft=4;spacingRight=4;overflow=hidden;rotatable=0;points=[[0,0.5],[1,0.5]];portConstraint=eastwest;whiteSpace=wrap;html=1;" vertex="1" parent="PF3ve-ReOAJWcFY7nudU-29">
          <mxGeometry y="86" width="279" height="26" as="geometry" />
        </mxCell>
        <mxCell id="PF3ve-ReOAJWcFY7nudU-40" value="&lt;font style=&quot;font-size: 24px;&quot;&gt;&lt;b&gt;Controller&lt;/b&gt;&lt;/font&gt;" style="text;html=1;align=center;verticalAlign=middle;whiteSpace=wrap;rounded=0;" vertex="1" parent="WIyWlLk6GJQsqaUBKTNV-1">
          <mxGeometry x="427.5" y="750" width="185" height="30" as="geometry" />
        </mxCell>
        <mxCell id="PF3ve-ReOAJWcFY7nudU-41" value="Use" style="edgeStyle=orthogonalEdgeStyle;rounded=0;orthogonalLoop=1;jettySize=auto;html=1;exitX=0;exitY=0.5;exitDx=0;exitDy=0;entryX=1;entryY=0.5;entryDx=0;entryDy=0;dashed=1;endArrow=block;endFill=0;" edge="1" parent="WIyWlLk6GJQsqaUBKTNV-1" source="PF3ve-ReOAJWcFY7nudU-32" target="XYb0ZHMh9JhdsdhIbKo0-35">
          <mxGeometry relative="1" as="geometry">
            <Array as="points">
              <mxPoint x="180" y="1003" />
              <mxPoint x="180" y="1120" />
              <mxPoint x="930" y="1120" />
              <mxPoint x="930" y="243" />
            </Array>
          </mxGeometry>
        </mxCell>
        <mxCell id="PF3ve-ReOAJWcFY7nudU-42" style="edgeStyle=orthogonalEdgeStyle;rounded=0;orthogonalLoop=1;jettySize=auto;html=1;exitX=1;exitY=0.5;exitDx=0;exitDy=0;entryX=0;entryY=0.5;entryDx=0;entryDy=0;endArrow=none;endFill=0;startArrow=diamondThin;startFill=1;startSize=14;" edge="1" parent="WIyWlLk6GJQsqaUBKTNV-1" source="v_5QQle6XalpUN1hy-oC-9" target="v_5QQle6XalpUN1hy-oC-40">
          <mxGeometry relative="1" as="geometry">
            <Array as="points">
              <mxPoint x="890" y="969" />
              <mxPoint x="890" y="880" />
              <mxPoint x="1190" y="880" />
              <mxPoint x="1190" y="865" />
            </Array>
          </mxGeometry>
        </mxCell>
        <mxCell id="PF3ve-ReOAJWcFY7nudU-46" value="Use" style="edgeStyle=orthogonalEdgeStyle;rounded=0;orthogonalLoop=1;jettySize=auto;html=1;exitX=0;exitY=0.5;exitDx=0;exitDy=0;entryX=0;entryY=0.5;entryDx=0;entryDy=0;dashed=1;endArrow=open;endFill=0;" edge="1" parent="WIyWlLk6GJQsqaUBKTNV-1" source="PSJUhyCq9VPYlvBbJlN5-12" target="PSJUhyCq9VPYlvBbJlN5-15">
          <mxGeometry relative="1" as="geometry">
            <Array as="points">
              <mxPoint x="-20" y="501" />
              <mxPoint x="-20" y="596" />
            </Array>
          </mxGeometry>
        </mxCell>
      </root>
    </mxGraphModel>
  </diagram>
</mxfile>
